# xmcd
#
# Track frame offsets: 
#        150
#        16355
#        39296
#        60234
#        72302
#        86962
#        103236
#        123265
#        145826
#        164238
#        188153
#
# Disc length: 3098 seconds
#
# Revision: 1
# Processed by: cddbd v1.5.2PL0 Copyright (c) Steve Scherf et al.
# Submitted via: ExactAudioCopy v0.99pb4
#
DISCID=990c180b
DTITLE=Albert Castiglia - Burn
DYEAR=2002
DGENRE=Blues
TTITLE0=I Didn't Know
TTITLE1=Since You've Been Gone
TTITLE2=Burn
TTITLE3=Can't Be Satisfied
TTITLE4=Teasing The Trains
TTITLE5=No One To Blame
TTITLE6=Take Me With You When You Go
TTITLE7=The Day The Old Man Died
TTITLE8=Closing Time
TTITLE9=Cadillac Assembly Live (Live)
TTITLE10=Hoodoo Man Blues (Live)
EXTD=
EXTT0=
EXTT1=
EXTT2=
EXTT3=
EXTT4=
EXTT5=
EXTT6=
EXTT7=
EXTT8=
EXTT9=
EXTT10=
PLAYORDER=
